<svg width="24" height="25" viewBox="0 0 24 25" fill="none" xmlns="http://www.w3.org/2000/svg">
    <path
        d="M23.5001 7.50026C23.5001 14.68 19.1797 24.5 12 24.5C4.8203 24.5 0.500061 23.18 0.500061 16.0003C0.500061 8.82056 4.8203 0.500041 12 0.500041C19.1797 0.500041 23.5001 0.320559 23.5001 7.50026Z"
        fill="#393737" />
    <path fill-rule="evenodd" clip-rule="evenodd"
        d="M16.239 5.56136C16.0242 5.34657 15.676 5.34657 15.4612 5.56136L7.28609 13.7365C7.18714 13.8354 7.10798 13.9523 7.05285 14.081L5.44457 17.8336C5.35598 18.0404 5.40217 18.2802 5.56119 18.4392C5.72022 18.5982 5.96004 18.6444 6.16676 18.5558L9.91941 16.9475C10.048 16.8924 10.165 16.8132 10.2639 16.7143L18.439 8.53917C18.6538 8.32439 18.6538 7.97615 18.439 7.76136L16.239 5.56136ZM8.06391 14.5143L15.8501 6.72809L17.2723 8.15027L9.48609 15.9365L7.84125 16.6414L7.35898 16.1591L8.06391 14.5143Z"
        fill="#47A0F3" />
</svg>